<svg viewBox="0 0 84 85" fill="none" xmlns="http://www.w3.org/2000/svg" preserveAspectRatio="xMidYMid meet">
  <path d="M82.85 42.8503C82.85 65.4098 64.5609 83.6994 42 83.6994C19.4391 83.6994 1.15 65.4098 1.15 42.8503C1.15 20.2907 19.4392 1.99937 42 1.99937C64.5608 1.99937 82.85 20.2889 82.85 42.8503Z" fill="#022C40" stroke="white" stroke-width="2.3"/>
  <path d="M30.4954 35.6591C30.4954 35.6591 30.0622 30.6172 35.9629 24.0552C39.5109 20.1132 41.4547 17.0507 42.4183 15.2917C42.499 15.1447 42.6164 15.0212 42.7591 14.9332C42.9017 14.8451 43.0647 14.7954 43.2322 14.789C43.3997 14.7826 43.566 14.8197 43.715 14.8967C43.8639 14.9736 43.9904 15.0878 44.0821 15.2282C46.1903 18.4587 51.5253 25.2373 51.9678 25.8012C51.9881 25.8255 52.0068 25.8511 52.0238 25.8778C53.2656 27.8553 55.723 30.5107 55.9041 35.3435C55.9396 36.2772 56.0909 43.629 50.3638 47.3414C48.4964 48.5458 46.1473 49.2834 43.2399 49.2834C35.3467 49.2834 30.4394 42.9867 30.4954 35.6516" fill="#018C93"/>
  <path d="M30.4954 35.6591C30.4954 35.6591 30.0622 30.6172 35.9629 24.0552C39.5109 20.1132 41.4547 17.0507 42.4183 15.2917C42.499 15.1447 42.6164 15.0212 42.7591 14.9332C42.9017 14.8451 43.0647 14.7954 43.2322 14.789C43.3997 14.7826 43.566 14.8197 43.715 14.8967C43.8639 14.9736 43.9904 15.0878 44.0821 15.2282C46.1903 18.4587 51.5253 25.2373 51.9678 25.8012C51.9881 25.8255 52.0068 25.8511 52.0238 25.8778C53.2656 27.8553 55.723 30.5107 55.9041 35.3435C55.9396 36.2772 56.0909 43.629 50.3638 47.3414C48.4964 48.5458 46.1473 49.2834 43.2399 49.2834C35.3467 49.2834 30.4394 42.9867 30.4954 35.6516" stroke="white" stroke-width="2" stroke-miterlimit="10"/>
  <mask id="mask0_1008_1770" style="mask-type:luminance" maskUnits="userSpaceOnUse" x="2" y="3" width="80" height="80">
    <path d="M42.0005 82.6271C63.9692 82.6271 81.7784 64.8175 81.7784 42.8483C81.7784 20.8791 63.9692 3.06958 42.0005 3.06958C20.0318 3.06958 2.22266 20.8791 2.22266 42.8483C2.22266 64.8175 20.0318 82.6271 42.0005 82.6271Z" fill="white"/>
  </mask>
  <g mask="url(#mask0_1008_1770)">
    <path d="M88.953 51.6921C78.9404 47.2888 72.1115 52.228 72.1115 52.228C72.1115 52.228 54.1758 65.0307 32.6343 56.5753C8.63724 47.1563 -6.1875 61.057 -6.1875 61.057L-3.08213 73.9418C-3.08213 73.9418 16.3381 56.5435 33.4821 67.1129C54.4802 80.0594 72.6008 65.8337 72.6008 65.8337C72.6008 65.8337 80.395 59.1112 85.8476 65.1876L88.953 51.6921Z" fill="#018C93" stroke="white" stroke-width="2" stroke-miterlimit="10"/>
    <path d="M104.458 61.5202C94.7792 52.4317 82.1486 59.9945 82.1486 59.9945C82.1486 59.9945 72.7129 70.4798 42.6695 64.3399C17.1617 59.128 3.84766 68.8216 3.84766 68.8216L6.95303 81.7064C6.95303 81.7064 25.0213 68.4257 43.5172 74.8775C63.0906 81.7064 82.6378 73.6021 82.6378 73.6021C82.6378 73.6021 91.6327 69.5088 95.8846 72.9559L104.245 70.7115Z" fill="#4FB585" stroke="white" stroke-width="2" stroke-miterlimit="10"/>
    <path d="M104.245 70.7115C97.848 65.2961 89.6448 68.9338 89.6448 68.9338C89.6448 68.9338 86.9185 80.9671 49.4038 70.592C26.7046 64.3158 10.582 75.0737 10.582 75.0737L13.6874 87.9586C13.6874 87.9586 32.2207 71.9683 50.4159 79.5666C66.7644 86.3956 89.3703 79.8542 89.3703 79.8542C89.3703 79.8542 98.6677 76.4406 102.617 79.2081L104.245 70.7115Z" fill="#C85A89" stroke="white" stroke-width="2" stroke-miterlimit="10"/>
  </g>
</svg>